HIERARCHY
ROOT Hips
{
  OFFSET 54.0291 96.625 57.5594
  CHANNELS 6 Xposition Yposition Zposition Zrotation Xrotation Yrotation
  JOINT spine
  {
    OFFSET 0 8.13249 0.467659
    CHANNELS 3 Zrotation Xrotation Yrotation
    JOINT spine1
    {
      OFFSET 0 10.3498 0
      CHANNELS 3 Zrotation Xrotation Yrotation
      JOINT spine2
      {
        OFFSET 0 9.91699 0
        CHANNELS 3 Zrotation Xrotation Yrotation
        JOINT Neck
        {
          OFFSET 0 25.461 1.2139
          CHANNELS 3 Zrotation Xrotation Yrotation
          JOINT Head
          {
            OFFSET 0 7.69245 0
            CHANNELS 3 Zrotation Xrotation Yrotation
            End Site
            {
              OFFSET 0 18.62 -6.14063
            }
          }
        }
        JOINT RightShoulder
        {
          OFFSET -4.17575 10.7096 -0.581445
          CHANNELS 3 Zrotation Xrotation Yrotation
          JOINT RightArm
          {
            OFFSET 0 14.0466 0
            CHANNELS 3 Zrotation Xrotation Yrotation
            JOINT RightArmRoll
            {
              OFFSET 0 7.09099 0
              CHANNELS 3 Zrotation Xrotation Yrotation
              JOINT RightForeArm
              {
                OFFSET 0 20.6535 0
                CHANNELS 3 Zrotation Xrotation Yrotation
                JOINT RightForeArmRoll
                {
                  OFFSET 0 7.95718 0
                  CHANNELS 3 Zrotation Xrotation Yrotation
                  JOINT RightHand
                  {
                    OFFSET 0 15.9683 0
                    CHANNELS 3 Zrotation Xrotation Yrotation
                    End Site
                    {
                      OFFSET 0 0 0
                    }
                  }
                }
              }
            }
          }
        }
        JOINT LeftShoulder
        {
          OFFSET 4.17575 10.7096 -0.581445
          CHANNELS 3 Zrotation Xrotation Yrotation
          JOINT LeftArm
          {
            OFFSET 0 14.0466 0
            CHANNELS 3 Zrotation Xrotation Yrotation
            JOINT LeftArmRoll
            {
              OFFSET 0 7.09098 0
              CHANNELS 3 Zrotation Xrotation Yrotation
              JOINT LeftForeArm
              {
                OFFSET 0 20.6535 0
                CHANNELS 3 Zrotation Xrotation Yrotation
                JOINT LeftForeArmRoll
                {
                  OFFSET 0 7.95718 0
                  CHANNELS 3 Zrotation Xrotation Yrotation
                  JOINT LeftHand
                  {
                    OFFSET 0 15.9683 0
                    CHANNELS 3 Zrotation Xrotation Yrotation
                    End Site
                    {
                      OFFSET 0 0 0
                    }
                  }
                }
              }
            }
          }
        }
      }
    }
  }
  JOINT RightUpLeg
  {
    OFFSET -7.20834 -1.32182 -1.10884
    CHANNELS 3 Zrotation Xrotation Yrotation
    JOINT RightUpLegRoll
    {
      OFFSET 0 18.7238 0
      CHANNELS 3 Zrotation Xrotation Yrotation
      JOINT RightLeg
      {
        OFFSET 0 -23.1866 0
        CHANNELS 3 Zrotation Xrotation Yrotation
        JOINT RightLegRoll
        {
          OFFSET 0 23.2624 0
          CHANNELS 3 Zrotation Xrotation Yrotation
          JOINT RightFoot
          {
            OFFSET 0 19.3621 0
            CHANNELS 3 Zrotation Xrotation Yrotation
            JOINT RightToeBase
            {
              OFFSET 0 16.1857 0
              CHANNELS 3 Zrotation Xrotation Yrotation
              End Site
              {
                OFFSET 0.00686052 7.83863 -0.903522
              }
            }
          }
        }
      }
    }
  }
  JOINT LeftUpLeg
  {
    OFFSET 7.20834 -1.32182 -1.10884
    CHANNELS 3 Zrotation Xrotation Yrotation
    JOINT LeftUpLegRoll
    {
      OFFSET 0 18.7239 0
      CHANNELS 3 Zrotation Xrotation Yrotation
      JOINT LeftLeg
      {
        OFFSET 0 23.1865 0
        CHANNELS 3 Zrotation Xrotation Yrotation
        JOINT LeftLegRoll
        {
          OFFSET 0 23.4775 0
          CHANNELS 3 Zrotation Xrotation Yrotation
          JOINT LeftFoot
          {
            OFFSET 0 19.147 0
            CHANNELS 3 Zrotation Xrotation Yrotation
            JOINT LeftToeBase
            {
              OFFSET 0 16.1857 0
              CHANNELS 3 Zrotation Xrotation Yrotation
              End Site
              {
                OFFSET -0.0307459 7.83863 -0.903522
              }
            }
          }
        }
      }
    }
  }
}
MOTION
Frames: 8
Frame Time: 0.00208333
56.3887 56.7389 14.057 -1.93977 -3.59579 -3.34984 0.717979 0.930413 -0.221314 1.4389 5.85986 -0.547207 1.44849 7.50461 -0.572314 -2.36243 -4.2376 -1.57961 1.51606 4.69657 -1.8014 56.1723 -10.8277 -6.75983 128.199 35.9933 -22.6046 1.5879e-007 1.65327e-006 -2.35834e-006 17.8154 37.5731 -7.67528 1.86571e-006 -6.13156e-006 -3 8.02887 -4.95093 0.697502 -63.4257 -9.56324 5.98822 -118.652 37.4775 22.9874 -6.37977e-006 8.75591e-007 4.63666e-006 -11.5903 32.618 3.66897 2.2234e-006 7.34643e-006 2.99997 -8.02897 -4.95139 -0.69765 116.872 75.6327 67.1214 180 1.52565e-005 179.015 163.663 82.0291 -168.702 -5.41661e-007 -1.62237e-006 1.74304 -21.5688 66.3255 18.0966 8.13649 25.2327 -3.48765 -113.517 74.722 -69.3436 4.47153e-006 -3.51245e-005 -1.25751 2.96627 -83.2552 5.27883 1.01982e-006 -1.14719e-006 -2.24436 18.5881 60.7994 -14.4 -8.13672 25.236 3.48744 
56.3977 56.7371 14.075 -1.93997 -3.59053 -3.34955 0.717426 0.931433 -0.221132 1.43852 5.86188 -0.546557 1.4481 7.50663 -0.571656 -2.3665 -4.24213 -1.57959 1.52261 4.69617 -1.80136 56.1682 -10.8248 -6.75794 128.198 35.9864 -22.6025 1.5879e-007 1.65327e-006 -2.35834e-006 17.8151 37.595 -7.68027 1.86571e-006 -6.13156e-006 -3 8.02887 -4.95093 0.697502 -63.4248 -9.56121 5.98705 -118.651 37.475 22.9874 -6.37977e-006 8.75591e-007 4.63666e-006 -11.5885 32.6358 3.67104 2.2234e-006 7.34643e-006 2.99997 -8.02897 -4.95139 -0.69765 116.852 75.6375 67.1357 180 1.52565e-005 179.015 163.687 82.0346 -168.723 -5.41661e-007 -1.62237e-006 1.74299 -21.559 66.3265 18.0977 8.13649 25.2327 -3.48765 -113.503 74.7258 -69.3605 4.47153e-006 -3.51245e-005 -1.25806 2.95976 -83.2544 5.27294 1.01982e-006 -1.14719e-006 -2.24398 18.5895 60.7966 -14.398 -8.13672 25.236 3.48744 
56.3849 56.73 14.0697 -1.94013 -3.5854 -3.34927 0.716816 0.932447 -0.220921 1.43808 5.86389 -0.545836 1.44764 7.50864 -0.570927 -2.37012 -4.24704 -1.57943 1.52893 4.69679 -1.80116 56.1647 -10.822 -6.75608 128.197 35.9799 -22.5999 1.5879e-007 1.65327e-006 -2.35834e-006 17.8148 37.6162 -7.68516 1.86571e-006 -6.13156e-006 -3 8.02887 -4.95093 0.697502 -63.4236 -9.55918 5.98589 -118.651 37.4726 22.9874 -6.37977e-006 8.75591e-007 4.63666e-006 -11.5868 32.6527 3.67308 2.2234e-006 7.34643e-006 2.99997 -8.02897 -4.95139 -0.69765 116.833 75.6422 67.1495 180 1.52565e-005 179.015 163.712 82.0404 -168.745 -5.41661e-007 -1.62237e-006 1.74295 -21.5489 66.3274 18.0988 8.13649 25.2327 -3.48765 -113.489 74.7294 -69.3769 4.47153e-006 -3.51245e-005 -1.25863 2.95264 -83.2535 5.26652 1.01982e-006 -1.14719e-006 -2.2436 18.5911 60.7936 -14.396 -8.13672 25.236 3.48744 
56.3873 56.7314 14.0687 -1.94027 -3.58037 -3.34899 0.716164 0.933457 -0.220689 1.43759 5.86589 -0.545066 1.44715 7.51063 -0.570147 -2.37343 -4.25222 -1.57919 1.53509 4.69812 -1.80084 56.1615 -10.8191 -6.75423 128.195 35.9737 -22.597 1.5879e-007 1.65327e-006 -2.35834e-006 17.8144 37.6369 -7.68997 1.86571e-006 -6.13156e-006 -3 8.02887 -4.95093 0.697502 -63.4223 -9.55716 5.98473 -118.652 37.4705 22.9874 -6.37977e-006 8.75591e-007 4.63666e-006 -11.5851 32.669 3.67509 2.2234e-006 7.34643e-006 2.99997 -8.02897 -4.95139 -0.69765 116.814 75.6469 67.163 180 1.52565e-005 179.016 163.738 82.0462 -168.767 -5.41661e-007 -1.62237e-006 1.74291 -21.5386 66.3284 18.1 8.13649 25.2327 -3.48765 -113.475 74.733 -69.393 4.47153e-006 -3.51245e-005 -1.25922 2.9451 -83.2525 5.25974 1.01982e-006 -1.14719e-006 -2.24323 18.5927 60.7906 -14.3938 -8.13672 25.236 3.48744 
56.4019 56.7414 14.0709 -1.94039 -3.57538 -3.3487 0.71549 0.934465 -0.220445 1.43708 5.86787 -0.544267 1.44663 7.51262 -0.569339 -2.37655 -4.25755 -1.57889 1.54116 4.69986 -1.80046 56.1585 -10.8163 -6.75239 128.194 35.9677 -22.5939 1.5879e-007 1.65327e-006 -2.35834e-006 17.814 37.6574 -7.69474 1.86571e-006 -6.13156e-006 -3 8.02887 -4.95093 0.697502 -63.4208 -9.55514 5.98357 -118.652 37.4684 22.9874 -6.37977e-006 8.75591e-007 4.63666e-006 -11.5834 32.685 3.67708 2.2234e-006 7.34643e-006 2.99997 -8.02897 -4.95139 -0.69765 116.795 75.6515 67.1763 180 1.52565e-005 179.016 163.764 82.0521 -168.789 -5.41661e-007 -1.62237e-006 1.74288 -21.5281 66.3293 18.1011 8.13649 25.2327 -3.48765 -113.462 74.7365 -69.4089 4.47153e-006 -3.51245e-005 -1.25981 2.93733 -83.2515 5.25276 1.01982e-006 -1.14719e-006 -2.24285 18.5943 60.7875 -14.3917 -8.13672 25.236 3.48744 
56.3948 56.735 14.0707 -1.94051 -3.57041 -3.34842 0.714809 0.935473 -0.220199 1.43656 5.86986 -0.543461 1.4461 7.51461 -0.568523 -2.37963 -4.26292 -1.57858 1.5472 4.70171 -1.80006 56.1556 -10.8135 -6.75055 128.192 35.9616 -22.5907 1.5879e-007 1.65327e-006 -2.35834e-006 17.8137 37.6777 -7.69951 1.86571e-006 -6.13156e-006 -3 8.02887 -4.95093 0.697502 -63.4192 -9.55312 5.98241 -118.653 37.4663 22.9874 -6.37977e-006 8.75591e-007 4.63666e-006 -11.5817 32.7009 3.67907 2.2234e-006 7.34643e-006 2.99997 -8.02897 -4.95139 -0.69765 116.777 75.6561 67.1894 180 1.52565e-005 179.017 163.791 82.0581 -168.812 -5.41661e-007 -1.62237e-006 1.74285 -21.5175 66.3302 18.1022 8.13649 25.2327 -3.48765 -113.449 74.74 -69.4247 4.47153e-006 -3.51245e-005 -1.26041 2.9295 -83.2505 5.24573 1.01982e-006 -1.14719e-006 -2.24247 18.596 60.7845 -14.3896 -8.13672 25.236 3.48744 
56.3845 56.7267 14.0711 -1.94063 -3.56542 -3.34813 0.71414 0.936482 -0.219958 1.43606 5.87185 -0.542669 1.44558 7.5166 -0.567722 -2.3828 -4.26822 -1.57829 1.5533 4.70335 -1.7997 56.1526 -10.8107 -6.74871 128.191 35.9555 -22.5877 1.5879e-007 1.65327e-006 -2.35834e-006 17.8133 37.6982 -7.7043 1.86571e-006 -6.13156e-006 -3 8.02887 -4.95093 0.697502 -63.4178 -9.5511 5.98125 -118.653 37.4642 22.9875 -6.37977e-006 8.75591e-007 4.63666e-006 -11.58 32.717 3.68107 2.2234e-006 7.34643e-006 2.99997 -8.02897 -4.95139 -0.69765 116.758 75.6608 67.2028 180 1.52565e-005 179.017 163.817 82.0639 -168.835 -5.41661e-007 -1.62237e-006 1.74281 -21.5071 66.3312 18.1033 8.13649 25.2327 -3.48765 -113.436 74.7436 -69.4407 4.47153e-006 -3.51245e-005 -1.261 2.9218 -83.2496 5.23881 1.01982e-006 -1.14719e-006 -2.24209 18.5977 60.7814 -14.3874 -8.13672 25.236 3.48744 
56.4158 56.7222 14.1548 -1.94078 -3.56035 -3.34785 0.7135 0.937494 -0.219732 1.43558 5.87385 -0.541913 1.4451 7.5186 -0.566957 -2.3862 -4.27332 -1.57808 1.5595 4.70448 -1.79941 56.1494 -10.8078 -6.74686 128.19 35.9492 -22.5848 1.5879e-007 1.65327e-006 -2.35834e-006 17.813 37.7191 -7.70915 1.86571e-006 -6.13156e-006 -3 8.02887 -4.95093 0.697502 -63.4165 -9.54908 5.98009 -118.653 37.462 22.9875 -6.37977e-006 8.75591e-007 4.63666e-006 -11.5783 32.7335 3.68309 2.2234e-006 7.34643e-006 2.99997 -8.02897 -4.95139 -0.69765 116.739 75.6654 67.2163 180 1.52565e-005 179.017 163.842 82.0697 -168.857 -5.41661e-007 -1.62237e-006 1.74277 -21.4968 66.3321 18.1044 8.13649 25.2327 -3.48765 -113.422 74.7472 -69.4569 4.47153e-006 -3.51245e-005 -1.26158 2.91439 -83.2486 5.23214 1.01982e-006 -1.14719e-006 -2.24171 18.5993 60.7784 -14.3853 -8.13672 25.236 3.48744 
